<?xml version="1.0" encoding="UTF-8"?>
<svg version="1.1" xmlns="http://www.w3.org/2000/svg" width="264" height="74">
<path d="M0 0 C87.12 0 174.24 0 264 0 C264 24.42 264 48.84 264 74 C176.88 74 89.76 74 0 74 C0 49.58 0 25.16 0 0 Z " fill="#FDFCFE" transform="translate(0,0)"/>
<path d="M0 0 C1.56041016 -0.02900391 1.56041016 -0.02900391 3.15234375 -0.05859375 C6.76193452 0.55673246 7.93533527 1.48789927 10.0625 4.4375 C10.453125 6.796875 10.453125 6.796875 10.3125 9.1875 C10.27640625 9.98671875 10.2403125 10.7859375 10.203125 11.609375 C10.15671875 12.21265625 10.1103125 12.8159375 10.0625 13.4375 C11.21878906 13.52837891 11.21878906 13.52837891 12.3984375 13.62109375 C13.40132812 13.70488281 14.40421875 13.78867187 15.4375 13.875 C16.93410156 13.99681641 16.93410156 13.99681641 18.4609375 14.12109375 C21.0625 14.4375 21.0625 14.4375 23.0625 15.4375 C23.14326963 17.89648655 23.20287143 20.35283742 23.25 22.8125 C23.27513672 23.51117188 23.30027344 24.20984375 23.32617188 24.9296875 C23.35546875 26.9609375 23.35546875 26.9609375 23.0625 30.4375 C19.74879 32.64664 18.7178979 32.66231553 14.875 32.5625 C13.97394531 32.54445312 13.07289062 32.52640625 12.14453125 32.5078125 C11.45746094 32.48460937 10.77039062 32.46140625 10.0625 32.4375 C10.09730469 33.19675781 10.13210937 33.95601562 10.16796875 34.73828125 C10.19503906 35.73214844 10.22210938 36.72601563 10.25 37.75 C10.30220703 39.22919922 10.30220703 39.22919922 10.35546875 40.73828125 C10.0625 43.4375 10.0625 43.4375 8.9921875 45.26953125 C6.02684749 47.06434231 3.42820956 46.83377121 0 46.8125 C-1.87365234 46.82410156 -1.87365234 46.82410156 -3.78515625 46.8359375 C-4.82542969 46.70445313 -5.86570312 46.57296875 -6.9375 46.4375 C-9.21812828 43.01655758 -9.15675007 41.75562778 -9.0625 37.75 C-9.04445313 36.75613281 -9.02640625 35.76226562 -9.0078125 34.73828125 C-8.98460937 33.97902344 -8.96140625 33.21976563 -8.9375 32.4375 C-10.09378906 32.47230469 -10.09378906 32.47230469 -11.2734375 32.5078125 C-12.27632812 32.52585938 -13.27921875 32.54390625 -14.3125 32.5625 C-15.31023438 32.58570313 -16.30796875 32.60890625 -17.3359375 32.6328125 C-19.9375 32.4375 -19.9375 32.4375 -21.9375 30.4375 C-22.10913731 27.87457683 -22.17014558 25.43404143 -22.125 22.875 C-22.12435547 22.17697266 -22.12371094 21.47894531 -22.12304688 20.75976562 C-22.07781158 15.57781158 -22.07781158 15.57781158 -20.9375 14.4375 C-18.91785801 14.36505947 -16.89582876 14.35372812 -14.875 14.375 C-13.21791016 14.38853516 -13.21791016 14.38853516 -11.52734375 14.40234375 C-10.67269531 14.41394531 -9.81804688 14.42554688 -8.9375 14.4375 C-8.97230469 13.67824219 -9.00710937 12.91898438 -9.04296875 12.13671875 C-9.08357422 10.64591797 -9.08357422 10.64591797 -9.125 9.125 C-9.17720703 7.64580078 -9.17720703 7.64580078 -9.23046875 6.13671875 C-8.9375 3.4375 -8.9375 3.4375 -7.796875 1.609375 C-5.15462259 -0.05591014 -3.10337361 0.00383606 0 0 Z " fill="#5473FF" transform="translate(33.9375,10.5625)"/>
<path d="M0 0 C11.44444444 0 11.44444444 0 15 3 C17.47361688 6.71042531 17.54607278 9.69862675 17 14 C15.16379183 18.2232788 14.26177203 18.86911399 10 21 C6.7 21 3.4 21 0 21 C0 14.07 0 7.14 0 0 Z " fill="#F5F0FD" transform="translate(61,24)"/>
<path d="M0 0 C0.99 0 1.98 0 3 0 C3 7.26 3 14.52 3 22 C-7 22 -7 22 -9.625 20.5 C-11.57900137 16.94727024 -11.78601331 13.96247948 -11 10 C-9.4375 7.4375 -9.4375 7.4375 -7 6 C-3.25 6.25 -3.25 6.25 0 7 C0 4.69 0 2.38 0 0 Z " fill="#6E2EED" transform="translate(195,23)"/>
<path d="M0 0 C2.375 1.5625 2.375 1.5625 4 4 C4.60190112 8.13807018 4.40553614 10.26691544 2.375 13.9375 C0 16 0 16 -3 16.5625 C-6 16 -6 16 -8.375 14.5625 C-10.7638671 10.79544034 -10.80596676 7.34235152 -10 3 C-7.26135833 -0.47596827 -4.2407782 -0.61844682 0 0 Z " fill="#F7F4FE" transform="translate(92,29)"/>
<path d="M0 0 C11.44444444 0 11.44444444 0 15 3 C17.47361688 6.71042531 17.54607278 9.69862675 17 14 C15.16379183 18.2232788 14.26177203 18.86911399 10 21 C6.7 21 3.4 21 0 21 C0 14.07 0 7.14 0 0 Z M2 2 C2 7.61 2 13.22 2 19 C9.3072418 19.64255833 9.3072418 19.64255833 12.5 17.625 C14.75975802 13.67042347 15.00769037 9.43828332 14 5 C12.52924319 3.01438716 12.52924319 3.01438716 10 2 C7.36 2 4.72 2 2 2 Z " fill="#6A29EC" transform="translate(61,24)"/>
<path d="M0 0 C0.99 0.66 1.98 1.32 3 2 C3.1875 5.125 3.1875 5.125 3 8 C-0.3 8 -3.6 8 -7 8 C-6.34 9.65 -5.68 11.3 -5 13 C-1.95613276 13.08226668 0.07175348 12.97608217 3 12 C2 15 2 15 0 16 C-2.875 16.375 -2.875 16.375 -6 16 C-9.16196359 13.25408425 -9.91691332 11.59199258 -10.5 7.4375 C-10 4 -10 4 -8.375 1.5625 C-5.33458305 -0.43777431 -3.5772533 -0.45667063 0 0 Z " fill="#6B2AEC" transform="translate(177,29)"/>
<path d="M0 0 C2 2 2 2 2 7 C-1.63 7 -5.26 7 -9 7 C-8.67 8.65 -8.34 10.3 -8 12 C-4.4780279 12.08004482 -1.38018531 12.04005702 2 11 C0.875 13 0.875 13 -1 15 C-4.54177048 15.60285455 -6.29288388 15.42799134 -9.375 13.5625 C-11.76704368 9.79043111 -11.79711847 6.34717186 -11 2 C-7.99481178 -2.08705598 -4.56054838 -1.09790979 0 0 Z " fill="#6825EC" transform="translate(240,30)"/>
<path d="M0 0 C1.9375 1.5 1.9375 1.5 3 3 C-0.06890187 4.53445094 -2.70094266 3.54984289 -6 3 C-6.33 4.32 -6.66 5.64 -7 7 C-5.93458984 7.41572266 -5.93458984 7.41572266 -4.84765625 7.83984375 C-3.92855469 8.20207031 -3.00945312 8.56429687 -2.0625 8.9375 C-1.14597656 9.29714844 -0.22945312 9.65679687 0.71484375 10.02734375 C3 11 3 11 4 12 C3.75 15.4375 3.75 15.4375 3 19 C-0.7205836 21.48038907 -2.59796571 21.46337203 -7 21 C-9.4375 19 -9.4375 19 -11 17 C-7.58862243 17 -4.37286428 17.50940156 -1 18 C-0.34 18 0.32 18 1 18 C1.2113453 15.6087705 1.2113453 15.6087705 0 13 C-2.25827459 11.68231195 -4.53100829 10.73802845 -6.96875 9.796875 C-9 9 -9 9 -10 8 C-10.28792759 5.26468791 -10.34443368 3.58756334 -8.9375 1.1875 C-5.90624457 -0.67036623 -3.46577141 -0.37133265 0 0 Z " fill="#7031ED" transform="translate(126,24)"/>
<path d="M0 0 C0.99 0 1.98 0 3 0 C3.33 2.31 3.66 4.62 4 7 C4.33 6.67 4.66 6.34 5 6 C11.72 6.72 11.72 6.72 13 8 C13.07271741 10.35313555 13.08370868 12.70833668 13.0625 15.0625 C13.05347656 16.35285156 13.04445312 17.64320312 13.03515625 18.97265625 C13.02355469 19.97167969 13.01195312 20.97070312 13 22 C12.34 22 11.68 22 11 22 C10.67 18.04 10.34 14.08 10 10 C8.35 9.67 6.7 9.34 5 9 C2.41073669 11.58926331 2.62601957 13.02705279 2.375 16.625 C2.30023438 17.62789062 2.22546875 18.63078125 2.1484375 19.6640625 C2.09945312 20.43492188 2.05046875 21.20578125 2 22 C1.34 22 0.68 22 0 22 C0 14.74 0 7.48 0 0 Z " fill="#793EEE" transform="translate(150,23)"/>
<path d="M0 0 C0.66 0 1.32 0 2 0 C2.33 3.96 2.66 7.92 3 12 C4.65 12.33 6.3 12.66 8 13 C9.81115956 11.18884044 9.38199448 8.38721773 9.5625 5.9375 C9.64628906 4.83277344 9.73007813 3.72804687 9.81640625 2.58984375 C9.87699219 1.73519531 9.93757812 0.88054688 10 0 C10.99 0 11.98 0 13 0 C13 5.28 13 10.56 13 16 C11.68 15.67 10.36 15.34 9 15 C8.67 15.33 8.34 15.66 8 16 C4.5 15.6875 4.5 15.6875 1 15 C-0.44207941 12.11584117 -0.09394887 9.58278472 -0.0625 6.375 C-0.05347656 5.18648437 -0.04445312 3.99796875 -0.03515625 2.7734375 C-0.02355469 1.85820312 -0.01195312 0.94296875 0 0 Z " fill="#6B2AEC" transform="translate(203,29)"/>
<path d="M0 0 C2.375 1.5625 2.375 1.5625 4 4 C4.60190112 8.13807018 4.40553614 10.26691544 2.375 13.9375 C0 16 0 16 -3 16.5625 C-6 16 -6 16 -8.375 14.5625 C-10.7638671 10.79544034 -10.80596676 7.34235152 -10 3 C-7.26135833 -0.47596827 -4.2407782 -0.61844682 0 0 Z M-8 4 C-8.31537716 8.33643601 -8.44897847 10.32653229 -6 14 C-3.5 14.41666667 -3.5 14.41666667 -1 14 C1.15705515 12.2435669 1.15705515 12.2435669 1.265625 10.125 C1.26046875 9.42375 1.2553125 8.7225 1.25 8 C1.25515625 7.29875 1.2603125 6.5975 1.265625 5.875 C1.15705515 3.7564331 1.15705515 3.7564331 -1 2 C-4.9674509 1.56530472 -4.9674509 1.56530472 -8 4 Z " fill="#6D2CEC" transform="translate(92,29)"/>
<path d="M0 0 C2.375 0.6875 2.375 0.6875 3.375 1.6875 C3.64814815 7.42361111 3.64814815 7.42361111 3.375 9.6875 C2.715 10.3475 2.055 11.0075 1.375 11.6875 C-1.6875 11.4375 -1.6875 11.4375 -4.625 10.6875 C-6.14650158 7.64449684 -5.86399393 5.033415 -5.625 1.6875 C-2.625 -0.3125 -2.625 -0.3125 0 0 Z " fill="#F7F3FE" transform="translate(191.625,31.3125)"/>
<path d="M0 0 C0.99 0.66 1.98 1.32 3 2 C3 2.66 3 3.32 3 4 C1.700625 3.814375 0.40125 3.62875 -0.9375 3.4375 C-3.08575543 3.1018371 -3.08575543 3.1018371 -5 3 C-6.20561184 3.98267859 -6.20561184 3.98267859 -6.09765625 5.84765625 C-6.08605469 6.57855469 -6.07445312 7.30945312 -6.0625 8.0625 C-6.041875 9.361875 -6.02125 10.66125 -6 12 C-2.52852158 12.74957157 -2.52852158 12.74957157 1 13 C1 12.34 1 11.68 1 11 C1.66 11 2.32 11 3 11 C2.625 12.9375 2.625 12.9375 2 15 C-0.87470493 16.43735246 -2.81894588 16.38172649 -6 16 C-9.16196359 13.25408425 -9.91691332 11.59199258 -10.5 7.4375 C-10 4 -10 4 -8.375 1.5625 C-5.33458305 -0.43777431 -3.5772533 -0.45667063 0 0 Z " fill="#8651F0" transform="translate(143,29)"/>
<path d="M0 0 C0.66 1.32 1.32 2.64 2 4 C0.88625 3.814375 -0.2275 3.62875 -1.375 3.4375 C-4.82568861 2.68319343 -4.82568861 2.68319343 -7 4 C-7 6.97 -7 9.94 -7 13 C-3.05272412 13.17942163 -0.4019487 13.09350689 3 11 C2.4375 12.9375 2.4375 12.9375 1 15 C-2.375 16 -2.375 16 -6 16 C-8.4375 14.625 -8.4375 14.625 -10 12 C-10.54249344 8.89604269 -10.5755164 6.10074141 -10 3 C-7.21263782 -0.53780585 -4.2930547 -0.29270827 0 0 Z " fill="#7234ED" transform="translate(110,29)"/>
<path d="M0 0 C0.99 0.66 1.98 1.32 3 2 C2.67 3.32 2.34 4.64 2 6 C-1.3 6 -4.6 6 -8 6 C-8.33 5.01 -8.66 4.02 -9 3 C-6.39572664 -0.47236449 -4.17901405 -0.43531396 0 0 Z " fill="#7437ED" transform="translate(177,29)"/>
<path d="M0 0 C3.16115776 1.36983503 3.9927092 1.9890638 6 5 C6.42335044 10.24954551 6.55835366 13.80622605 3 18 C0.8125 18.8125 0.8125 18.8125 -1 19 C-1 18.34 -1 17.68 -1 17 C-0.51273437 16.566875 -0.02546875 16.13375 0.4765625 15.6875 C2.52468906 13.41880596 2.40192577 12.01568583 2.375 9 C2.38273437 8.13375 2.39046875 7.2675 2.3984375 6.375 C1.93393358 3.60619233 1.15199754 2.73070701 -1 1 C-0.67 0.67 -0.34 0.34 0 0 Z " fill="#7539ED" transform="translate(72,25)"/>
<path d="M0 0 C3 0 6 0 9 0 C9 0.66 9 1.32 9 2 C7.02 2.33 5.04 2.66 3 3 C2.67 7.29 2.34 11.58 2 16 C1.34 16 0.68 16 0 16 C0 10.72 0 5.44 0 0 Z " fill="#6E2FED" transform="translate(246,29)"/>
<path d="M0 0 C0.99 0 1.98 0 3 0 C3 7.26 3 14.52 3 22 C2.67 22 2.34 22 2 22 C1.95101562 21.08476563 1.90203125 20.16953125 1.8515625 19.2265625 C1.77679688 18.03804687 1.70203125 16.84953125 1.625 15.625 C1.55539063 14.44164062 1.48578125 13.25828125 1.4140625 12.0390625 C1.29782654 8.89437681 1.29782654 8.89437681 -1 7 C-0.625 3.375 -0.625 3.375 0 0 Z M0 9 C0.33 9 0.66 9 1 9 C1 11.64 1 14.28 1 17 C0.67 17 0.34 17 0 17 C0 14.36 0 11.72 0 9 Z " fill="#8B58F0" transform="translate(195,23)"/>
<path d="M0 0 C0.99 0 1.98 0 3 0 C3 5.28 3 10.56 3 16 C2.34 16 1.68 16 1 16 C-0.14077657 12.57767028 -0.09815117 9.91326783 -0.0625 6.3125 C-0.05347656 5.13300781 -0.04445312 3.95351563 -0.03515625 2.73828125 C-0.02355469 1.83464844 -0.01195312 0.93101563 0 0 Z " fill="#8651F0" transform="translate(213,29)"/>
<path d="M0 0 C2.2819602 0.30426136 3.81190144 0.87907949 5.75 2.125 C7.75679893 5.13519839 7.43144301 7.48682123 7 11 C5 13.4375 5 13.4375 3 15 C3 13.35349928 3.02143445 11.70468094 3.140625 10.0625 C3.25113913 7.9785193 3.29300945 6.068302 3 4 C1.15811388 1.94729537 1.15811388 1.94729537 -1 1 C-0.67 0.67 -0.34 0.34 0 0 Z " fill="#7234ED" transform="translate(89,29)"/>
<path d="M0 0 C0.33 0 0.66 0 1 0 C1.66 2.31 2.32 4.62 3 7 C6.47147842 7.74957157 6.47147842 7.74957157 10 8 C10 7.34 10 6.68 10 6 C10.66 6 11.32 6 12 6 C11.625 7.9375 11.625 7.9375 11 10 C8.20129973 11.39935013 6.09501208 11.25265405 3 11 C1.125 10 1.125 10 0 8 C-0.24131207 5.28121737 -0.1347929 2.7407889 0 0 Z " fill="#7031ED" transform="translate(134,34)"/>
<path d="M0 0 C0.99 0.33 1.98 0.66 3 1 C3 5.62 3 10.24 3 15 C2.34 15 1.68 15 1 15 C0.83179449 13.06263299 0.66548905 11.12510094 0.5 9.1875 C0.4071875 8.10855469 0.314375 7.02960937 0.21875 5.91796875 C0 3 0 3 0 0 Z " fill="#7031ED" transform="translate(160,30)"/>
<path d="M0 0 C1.65 0 3.3 0 5 0 C5.66 1.32 6.32 2.64 7 4 C4.03 4 1.06 4 -2 4 C-1.34 2.68 -0.68 1.36 0 0 Z " fill="#F2ECFD" transform="translate(233,31)"/>
<path d="M0 0 C0 0.99 0 1.98 0 3 C-2.64 3 -5.28 3 -8 3 C-8 2.01 -8 1.02 -8 0 C-5.13822943 -1.43088528 -3.06624227 -0.59991697 0 0 Z " fill="#F6F2FD" transform="translate(178,32)"/>
<path d="M0 0 C0.33 0.66 0.66 1.32 1 2 C4.5219721 2.08004482 7.61981469 2.04005702 11 1 C9.875 3 9.875 3 8 5 C5 5.4375 5 5.4375 2 5 C0.125 3.5 0.125 3.5 -1 2 C-0.67 1.34 -0.34 0.68 0 0 Z " fill="#7133ED" transform="translate(231,40)"/>
<path d="M0 0 C0.66 0.33 1.32 0.66 2 1 C1.67 1.99 1.34 2.98 1 4 C-2.04200046 4 -4.99532806 3.44513658 -8 3 C-8 2.34 -8 1.68 -8 1 C-6.865625 1.020625 -5.73125 1.04125 -4.5625 1.0625 C-1.18424326 1.41577477 -1.18424326 1.41577477 0 0 Z " fill="#7538ED" transform="translate(212,41)"/>
<path d="M0 0 C1.9375 0.25 1.9375 0.25 4 1 C6.56687367 4.8503105 5.83288724 6.58569763 5 11 C4.67 11 4.34 11 4 11 C3.87625 9.3603125 3.87625 9.3603125 3.75 7.6875 C3.36310791 3.96723336 3.36310791 3.96723336 0.9375 2.0625 C0.298125 1.711875 -0.34125 1.36125 -1 1 C-0.67 0.67 -0.34 0.34 0 0 Z " fill="#7F47EF" transform="translate(89,29)"/>
<path d="M0 0 C1.98 0 3.96 0 6 0 C6.66 1.32 7.32 2.64 8 4 C5.36 3.34 2.72 2.68 0 2 C0 1.34 0 0.68 0 0 Z " fill="#6B2AEC" transform="translate(104,29)"/>
<path d="M0 0 C2.97 0.495 2.97 0.495 6 1 C6.33 1.99 6.66 2.98 7 4 C4.36 3.34 1.72 2.68 -1 2 C-0.67 1.34 -0.34 0.68 0 0 Z " fill="#6C2BEC" transform="translate(139,29)"/>
</svg>
